<?xml version="1.0" encoding="UTF-8"?>
<svg width="48px" height="48px" viewBox="-16 -17 81 80" version="1.1" xmlns="http://www.w3.org/2000/svg" xmlns:xlink="http://www.w3.org/1999/xlink">
    <!-- Generator: Sketch 44.1 (41455) - http://www.bohemiancoding.com/sketch -->
    <title>ic-coffee-break</title>
    <desc>Created with Sketch.</desc>
    <defs></defs>
    <g id="Page-1" stroke="none" stroke-width="1" fill="none" fill-rule="evenodd">
        <g id="ic-coffee-break" fill-rule="nonzero" fill="#3C5369">
            <path d="M36.3142798,28.3829919 C38.3369383,27.8332437 39.7073884,26.6652407 40.9205532,24.8367917 C41.2125566,24.3966921 42.0230043,23.0328045 42.1384075,22.8541282 C42.6142224,22.1174346 42.9034609,21.876 43.19,21.876 C43.2082653,21.876 43.3755512,22.0767952 43.537316,22.6765409 C43.76541,23.5222036 43.8124123,24.7416515 43.6459562,26.0971115 C43.2468888,29.346737 41.776682,32.6602576 39.4367653,35.0010212 L40.8512347,36.4149788 C46.1778794,31.0864063 47.5545634,19.876 43.19,19.876 C42.0340899,19.876 41.2680099,20.5154661 40.4583637,21.7690232 C40.3133654,21.9935208 39.5114062,23.3431235 39.2540163,23.7310545 C38.2859259,25.1901339 37.279145,26.0481901 35.7897202,26.4530081 L36.3142798,28.3829919 Z" id="Shape"></path>
            <path d="M29.7207869,29.6368539 L35.1547869,28.1568539 C35.2965074,28.1185919 35.4479487,28.1856951 35.5167871,28.3194936 L39.0639846,35.2439305 C39.1375494,35.3881977 39.0892887,35.5666602 38.9537857,35.653192 C36.9597405,36.9216002 34.7695548,37.8400197 32.7293752,37.9803575 L32.8666248,39.9756425 C35.3072598,39.8077586 37.7768374,38.7721807 40.0287165,37.3397626 C41.034573,36.6974281 41.3865253,35.3959489 40.8448593,34.3337207 L37.2960154,27.4060695 C36.7954856,26.4332054 35.6863022,25.9417295 34.6313341,26.2265709 L29.1952131,27.7071461 L29.7207869,29.6368539 Z" id="Shape"></path>
            <path d="M12.2083843,26.4530365 C10.7197687,26.0482655 9.71349648,25.1902922 8.74569885,23.7311794 C8.48849995,23.3434101 7.68702887,21.9943182 7.54210335,21.7698643 C6.73232379,20.5157158 5.9661984,19.876 4.81,19.876 C0.445436643,19.876 1.82212061,31.0864063 7.14876529,36.4149788 L8.56323471,35.0010212 C6.223318,32.6602576 4.75311117,29.346737 4.3540438,26.0971115 C4.18758774,24.7416515 4.23458999,23.5222036 4.46268403,22.6765409 C4.62444881,22.0767952 4.79173473,21.876 4.81,21.876 C5.09662042,21.876 5.38594631,22.1175875 5.86190777,22.8547343 C5.97727469,23.0334091 6.78722588,24.3967754 7.07899626,24.8366669 C8.2918171,26.6651921 9.66168816,27.833179 11.6836157,28.3829635 L12.2083843,26.4530365 Z" id="Shape"></path>
            <path d="M18.8046968,27.7071216 L13.3686968,26.2271216 C12.3116978,25.9417295 11.2025144,26.4332054 10.7027871,27.4045064 L7.15398461,34.3320695 C6.61147467,35.3959489 6.96342697,36.6974281 7.96778574,37.338808 C10.2211626,38.7721807 12.6907402,39.8077586 15.1313752,39.9756425 L15.2686248,37.9803575 C13.2284452,37.8400197 11.0382595,36.9216002 9.04271654,35.6522374 C8.90871128,35.5666602 8.86045059,35.3881977 8.93485933,35.2422793 L12.4820154,28.3179305 C12.5500513,28.1856951 12.7014926,28.1185919 12.8453341,28.1574291 L18.2793032,29.6368784 L18.8046968,27.7071216 Z" id="Shape"></path>
            <path d="M33.6706238,38.139849 C34.044815,39.3118441 33.4299205,40.5707088 32.2766254,41.0045158 C26.6925189,43.0951686 21.0853966,43.0951686 15.5028766,41.0043292 C14.3496853,40.5718824 13.7382602,39.3167954 14.1166629,38.1179053 L17.3942064,28.6175375 C17.6973374,27.6552728 18.591353,27 19.6,27 L28.184,27 C29.1875952,27 30.0777044,27.6487253 30.3851945,28.6031021 L33.6706238,38.139849 Z M28.4905406,29.2437399 C28.441477,29.0891705 28.3198181,29 28.184,29 L19.6,29 C19.4641819,29 19.342523,29.0891705 19.2933371,29.2440947 L16.0157124,38.7447201 C15.9654034,38.9042715 16.0473623,39.0725104 16.2047402,39.1315272 C21.3346034,41.0528314 26.4434811,41.0528314 31.5739357,39.1320242 C31.7316054,39.0727172 31.8146926,38.9026139 31.7725406,38.7697399 L28.4905406,29.2437399 Z" id="Shape"></path>
            <path d="M32,9 L32,27.708 C32,28.2602847 32.4477153,28.708 33,28.708 C33.5522847,28.708 34,28.2602847 34,27.708 L34,8 C34,7.44771525 33.5522847,7 33,7 L13,7 C12.4477153,7 12,7.44771525 12,8 L12,27 C12,27.5522847 12.4477153,28 13,28 C13.5522847,28 14,27.5522847 14,27 L14,9 L32,9 Z" id="Shape"></path>
            <path d="M33,11 L36,11 C38.2097153,11 40,12.7902847 40,15 C40,17.2097153 38.2097153,19 36,19 L33,19 C32.4477153,19 32,19.4477153 32,20 C32,20.5522847 32.4477153,21 33,21 L36,21 C39.3142847,21 42,18.3142847 42,15 C42,11.6857153 39.3142847,9 36,9 L33,9 C32.4477153,9 32,9.44771525 32,10 C32,10.5522847 32.4477153,11 33,11 Z" id="Shape"></path>
        </g>
    </g>
</svg>