<?xml version="1.0" encoding="UTF-8"?>
<svg width="48px" height="48px" viewBox="-17 -17 80 80" version="1.1" xmlns="http://www.w3.org/2000/svg" xmlns:xlink="http://www.w3.org/1999/xlink">
    <!-- Generator: Sketch 44.1 (41455) - http://www.bohemiancoding.com/sketch -->
    <title>ic-discussion-panel</title>
    <desc>Created with Sketch.</desc>
    <defs></defs>
    <g id="Page-1" stroke="none" stroke-width="1" fill="none" fill-rule="evenodd">
        <g id="ic-discussion-panel" fill-rule="nonzero" fill="#efefef">
            <path d="M2.64707882,16.4905332 C1.16133179,16.9154344 0,18.4541573 0,20 L0,21 C0,21.5522847 0.44771525,22 1,22 L12,22 L12,20 L2,20 C2,19.3472616 2.56930251,18.5929562 3.19696162,18.4134552 L8.27492118,16.9614668 C8.70412305,16.8387411 9,16.4464032 9,16 L9,13.218 L7,13.218 L7,15.2458618 L2.64707882,16.4905332 Z" id="Shape"></path>
            <path d="M10,20 L10,22 L21,22 C21.5522847,22 22,21.5522847 22,21 L22,20 C22,18.453522 20.8379941,16.9150095 19.350481,16.4904075 L15,15.2459435 L15,13.156 L13,13.156 L13,16 C13,16.4463646 13.2958267,16.8386783 13.7249787,16.9614381 L18.8009787,18.4134381 C19.4305802,18.5931544 20,19.3470744 20,20 L10,20 Z" id="Shape"></path>
            <path d="M11,15.084 C7.11377332,15.084 4,11.6889492 4,7.542 C4,3.39505084 7.11377332,0 11,0 C14.8862267,0 18,3.39505084 18,7.542 C18,11.6889492 14.8862267,15.084 11,15.084 Z M11,13.084 C13.7411903,13.084 16,10.6211445 16,7.542 C16,4.46285549 13.7411903,2 11,2 C8.25880968,2 6,4.46285549 6,7.542 C6,10.6211445 8.25880968,13.084 11,13.084 Z" id="Oval"></path>
            <path d="M17.6451068,7.10310678 L16.2308932,5.68889322 C15.5465886,6.37319779 13.5369245,6.08868007 12.8810622,4.8669995 C12.5639704,4.27634983 11.766926,4.15886039 11.2928932,4.63289322 C9.78808101,6.13770543 7.10363192,6.36587564 5.70796888,5.38252838 L4.55603112,7.01747162 C6.47918847,8.37247742 9.61853833,8.29078207 11.8403563,6.76584379 C13.4464948,8.32592322 16.260465,8.48774861 17.6451068,7.10310678 Z" id="Shape"></path>
            <path d="M28.6470788,16.4905332 C27.1613318,16.9154344 26,18.4541573 26,20 L26,21 C26,21.5522847 26.4477153,22 27,22 L38,22 L38,20 L28,20 C28,19.3472616 28.5693025,18.5929562 29.1969616,18.4134552 L34.2749212,16.9614668 C34.704123,16.8387411 35,16.4464032 35,16 L35,13.218 L33,13.218 L33,15.2458618 L28.6470788,16.4905332 Z" id="Shape"></path>
            <path d="M36,20 L36,22 L47,22 C47.5522847,22 48,21.5522847 48,21 L48,20 C48,18.453522 46.8379941,16.9150095 45.350481,16.4904075 L41,15.2459435 L41,13.188 L39,13.188 L39,16 C39,16.4463646 39.2958267,16.8386783 39.7249787,16.9614381 L44.8009787,18.4134381 C45.4305802,18.5931544 46,19.3470744 46,20 L36,20 Z" id="Shape"></path>
            <path d="M37,15.084 C33.1137733,15.084 30,11.6889492 30,7.542 C30,3.39505084 33.1137733,0 37,0 C40.8862267,0 44,3.39505084 44,7.542 C44,11.6889492 40.8862267,15.084 37,15.084 Z M37,13.084 C39.7411903,13.084 42,10.6211445 42,7.542 C42,4.46285549 39.7411903,2 37,2 C34.2588097,2 32,4.46285549 32,7.542 C32,10.6211445 34.2588097,13.084 37,13.084 Z" id="Oval"></path>
            <path d="M43.6131068,7.09710678 L42.1988932,5.68289322 C41.5142328,6.36755364 39.5367433,6.08834257 38.8810622,4.8669995 C38.5639704,4.27634983 37.766926,4.15886039 37.2928932,4.63289322 C35.788081,6.13770543 33.1036319,6.36587564 31.7079689,5.38252838 L30.5560311,7.01747162 C32.4789221,8.37228975 35.6176688,8.29080467 37.8394331,6.76647732 C39.4387924,8.32434928 42.2286787,8.48153482 43.6131068,7.09710678 Z" id="Shape"></path>
            <path d="M15.6470788,42.4905332 C14.1613318,42.9154344 13,44.4541573 13,46 L13,47 C13,47.5522847 13.4477153,48 14,48 L25,48 L25,46 L15,46 C15,45.3472616 15.5693025,44.5929562 16.1969616,44.4134552 L21.2749212,42.9614668 C21.704123,42.8387411 22,42.4464032 22,42 L22,39.218 L20,39.218 L20,41.2458618 L15.6470788,42.4905332 Z" id="Shape"></path>
            <path d="M23,46 L23,48 L34,48 C34.5522847,48 35,47.5522847 35,47 L35,46 C35,44.453522 33.8379941,42.9150095 32.350481,42.4904075 L28,41.2459435 L28,39.218 L26,39.218 L26,42 C26,42.4463646 26.2958267,42.8386783 26.7249787,42.9614381 L31.8009787,44.4134381 C32.4305802,44.5931544 33,45.3470744 33,46 L23,46 Z" id="Shape"></path>
            <path d="M24,41.084 C20.1137733,41.084 17,37.6889492 17,33.542 C17,29.3950508 20.1137733,26 24,26 C27.8862267,26 31,29.3950508 31,33.542 C31,37.6889492 27.8862267,41.084 24,41.084 Z M24,39.084 C26.7411903,39.084 29,36.6211445 29,33.542 C29,30.4628555 26.7411903,28 24,28 C21.2588097,28 19,30.4628555 19,33.542 C19,36.6211445 21.2588097,39.084 24,39.084 Z" id="Oval"></path>
            <path d="M30.6131068,33.0471068 L29.1988932,31.6328932 C28.5020817,32.3297047 26.5305618,32.0768281 25.8810622,30.8669995 C25.5639704,30.2763498 24.766926,30.1588604 24.2928932,30.6328932 C22.788081,32.1377054 20.1036319,32.3658756 18.7079689,31.3825284 L17.5560311,33.0174716 C19.4793861,34.3726167 22.6191835,34.2907653 24.8410412,32.7653737 C26.4400261,34.3114098 29.2263578,34.4338557 30.6131068,33.0471068 Z" id="Shape"></path>
            <path d="M7.29289322,25.7071068 L12.2928932,30.7071068 C12.6834175,31.0976311 13.3165825,31.0976311 13.7071068,30.7071068 C14.0976311,30.3165825 14.0976311,29.6834175 13.7071068,29.2928932 L8.70710678,24.2928932 C8.31658249,23.9023689 7.68341751,23.9023689 7.29289322,24.2928932 C6.90236893,24.6834175 6.90236893,25.3165825 7.29289322,25.7071068 Z" id="Shape"></path>
            <path d="M39.2928932,24.2928932 L34.2928932,29.2928932 C33.9023689,29.6834175 33.9023689,30.3165825 34.2928932,30.7071068 C34.6834175,31.0976311 35.3165825,31.0976311 35.7071068,30.7071068 L40.7071068,25.7071068 C41.0976311,25.3165825 41.0976311,24.6834175 40.7071068,24.2928932 C40.3165825,23.9023689 39.6834175,23.9023689 39.2928932,24.2928932 Z" id="Shape"></path>
        </g>
    </g>
</svg>