<?xml version="1.0" encoding="UTF-8"?>
<svg width="48px" height="48px" viewBox="-14 -17 83 80" version="1.1" xmlns="http://www.w3.org/2000/svg" xmlns:xlink="http://www.w3.org/1999/xlink">
    <!-- Generator: Sketch 44.1 (41455) - http://www.bohemiancoding.com/sketch -->
    <title>ic-end-2</title>
    <desc>Created with Sketch.</desc>
    <defs></defs>
    <g id="Page-1" stroke="none" stroke-width="1" fill="none" fill-rule="evenodd">
        <g id="ic-end-2" fill-rule="nonzero" fill="#3C5369">
            <path d="M46.6182418,2.08236065 C47.6483149,1.65689568 48.4971385,2.98106479 47.680453,3.73941557 L19.680453,29.7394156 C19.399689,30.000125 18.9946459,30.0774952 18.6375557,29.9386268 L0.637555682,22.9386268 C-0.203059859,22.6117207 -0.215389783,21.4266867 0.618241789,21.0823607 L46.6182418,2.08236065 Z M3.68713748,21.9786632 L18.7786025,27.8475663 L42.2542148,6.04878347 L3.68713748,21.9786632 Z" id="Shape"></path>
            <path d="M20.694918,28.7949248 L38.306262,38.481164 L45.3507996,5.90017758 L20.694918,28.7949248 Z M47.9775123,3.21537793 L39.9775123,40.2153779 C39.8360853,40.8694779 39.1045561,41.2027682 38.5181794,40.880261 L18.5181794,29.880261 C17.9209132,29.5517646 17.8201437,28.7350762 18.3196471,28.2712516 L46.3196471,2.27125164 C47.0365761,1.60553186 48.1842699,2.25912413 47.9775123,3.21537793 Z" id="Shape"></path>
            <path d="M20,29 L18,29 L18,45 C18,46.0207344 19.3494604,46.3855598 19.8637789,45.503871 L26.8637789,33.503871 L25.1362211,32.496129 L20,41.3010794 L20,29 Z" id="Shape"></path>
        </g>
    </g>
</svg>