<?xml version="1.0" encoding="UTF-8"?>
<svg width="48px" height="48px" viewBox="-18 -14 79 83" version="1.1" xmlns="http://www.w3.org/2000/svg" xmlns:xlink="http://www.w3.org/1999/xlink">
    <!-- Generator: Sketch 44.1 (41455) - http://www.bohemiancoding.com/sketch -->
    <title>ic-happy</title>
    <desc>Created with Sketch.</desc>
    <defs></defs>
    <g id="Page-1" stroke="none" stroke-width="1" fill="none" fill-rule="evenodd">
        <g id="ic-happy" fill-rule="nonzero" fill="#3C5369">
            <path d="M13.5258316,18.5950659 L0.38383163,43.2130659 C-0.289058343,44.4779812 -0.0583493677,46.0329764 0.951885228,47.0460974 C1.96864019,48.0628538 3.52597465,48.2937861 4.79077961,47.6151807 L29.4825289,34.4483846 L28.5414711,32.6836154 L3.84747111,45.8516154 C3.35823954,46.114099 2.75953203,46.0253185 2.36710678,45.6328932 C1.97827763,45.2429517 1.88910609,44.641929 2.14885461,44.1536464 L15.2901684,19.5369341 L13.5258316,18.5950659 Z" id="Shape"></path>
            <path d="M22.7163668,31.2588459 C16.2905358,31.2588459 10.9637096,28.8005394 10.9637096,25.2965426 C10.9637096,21.7925458 16.2905358,19.3342393 22.7163668,19.3342393 C29.1421978,19.3342393 34.469024,21.7925458 34.469024,25.2965426 C34.469024,28.8005394 29.1421978,31.2588459 22.7163668,31.2588459 Z M22.7163668,29.2588459 C28.167593,29.2588459 32.469024,27.2737547 32.469024,25.2965426 C32.469024,23.3193305 28.167593,21.3342393 22.7163668,21.3342393 C17.2651406,21.3342393 12.9637096,23.3193305 12.9637096,25.2965426 C12.9637096,27.2737547 17.2651406,29.2588459 22.7163668,29.2588459 Z" id="Oval" transform="translate(22.716367, 25.296543) rotate(39.000000) translate(-22.716367, -25.296543) "></path>
            <path d="M33.6007416,25.1414717 C37.086301,21.6595094 42.737699,21.6595094 46.2232584,25.1414717 C46.6139842,25.5317944 47.2471491,25.5314675 47.6374717,25.1407416 C48.0277944,24.7500158 48.0274675,24.1168509 47.6367416,23.7265283 C43.370301,19.4644906 36.453699,19.4644906 32.1872584,23.7265283 C31.7965325,24.1168509 31.7962056,24.7500158 32.1865283,25.1407416 C32.5768509,25.5314675 33.2100158,25.5317944 33.6007416,25.1414717 Z" id="Shape"></path>
            <path d="M24.2451068,15.7851068 C28.5115703,11.5186433 28.5115703,4.60575951 24.2454714,0.335257989 C23.8551485,-0.055467656 23.2219836,-0.055794198 22.831258,0.334528637 C22.4405323,0.724851472 22.4402058,1.35801637 22.8305286,1.74874201 C26.3164297,5.23824049 26.3164297,10.8853567 22.8308932,14.3708932 C22.4403689,14.7614175 22.4403689,15.3945825 22.8308932,15.7851068 C23.2214175,16.1756311 23.8545825,16.1756311 24.2451068,15.7851068 Z" id="Shape"></path>
            <path d="M36.4658221,17.4488184 L43.4838221,15.1128184 C44.0078401,14.9383947 44.2912422,14.3721958 44.1168184,13.8481779 C43.9423947,13.3241599 43.3761958,13.0407578 42.8521779,13.2151816 L35.8341779,15.5511816 C35.3101599,15.7256053 35.0267578,16.2918042 35.2011816,16.8158221 C35.3756053,17.3398401 35.9418042,17.6232422 36.4658221,17.4488184 Z" id="Shape"></path>
            <path d="M32.4206833,12.1402278 L34.7606833,5.12022777 C34.9353311,4.59628445 34.6521711,4.02996447 34.1282278,3.8553167 C33.6042844,3.68066893 33.0379645,3.96382892 32.8633167,4.48777223 L30.5233167,11.5077722 C30.3486689,12.0317156 30.6318289,12.5980355 31.1557722,12.7726833 C31.6797156,12.9473311 32.2460355,12.6641711 32.4206833,12.1402278 Z" id="Shape"></path>
            <path d="M31.132,18.504 C30.0263259,18.504 29.13,17.6076741 29.13,16.502 C29.13,15.3963259 30.0263259,14.5 31.132,14.5 C32.2376741,14.5 33.134,15.3963259 33.134,16.502 C33.134,17.6076741 32.2376741,18.504 31.132,18.504 Z M31.134,16.502 C31.1308954,16.5 31.13,16.5008954 31.13,16.502 C31.1331046,16.504 31.134,16.5031046 31.134,16.502 Z" id="Oval"></path>
            <path d="M16.268,12.652 C15.1634305,12.652 14.268,11.7565695 14.268,10.652 C14.268,9.5474305 15.1634305,8.652 16.268,8.652 C17.3725695,8.652 18.268,9.5474305 18.268,10.652 C18.268,11.7565695 17.3725695,12.652 16.268,12.652 Z" id="Oval"></path>
            <path d="M39.816,10.192 C38.7114305,10.192 37.816,9.2965695 37.816,8.192 C37.816,7.0874305 38.7114305,6.192 39.816,6.192 C40.9205695,6.192 41.816,7.0874305 41.816,8.192 C41.816,9.2965695 40.9205695,10.192 39.816,10.192 Z" id="Oval"></path>
            <path d="M38.49,30.2 C37.3854305,30.2 36.49,29.3045695 36.49,28.2 C36.49,27.0954305 37.3854305,26.2 38.49,26.2 C39.5945695,26.2 40.49,27.0954305 40.49,28.2 C40.49,29.3045695 39.5945695,30.2 38.49,30.2 Z" id="Oval"></path>
        </g>
    </g>
</svg>