<?xml version="1.0" encoding="UTF-8"?>
<svg width="48px" height="48px" viewBox="-16 -16 81 81" version="1.1" xmlns="http://www.w3.org/2000/svg" xmlns:xlink="http://www.w3.org/1999/xlink">
    <!-- Generator: Sketch 44.1 (41455) - http://www.bohemiancoding.com/sketch -->
    <title>ic-lunch-break</title>
    <desc>Created with Sketch.</desc>
    <defs></defs>
    <g id="Page-1" stroke="none" stroke-width="1" fill="none" fill-rule="evenodd">
        <g id="ic-lunch-break" fill-rule="nonzero" fill="#3C5369">
            <path d="M1,36 L47,36 C47.5522847,36 48,35.5522847 48,35 C48,34.4477153 47.5522847,34 47,34 L1,34 C0.44771525,34 0,34.4477153 0,35 C0,35.5522847 0.44771525,36 1,36 Z" id="Shape"></path>
            <path d="M39,34 C39.7986954,34 40.2750868,34.8901455 39.8320503,35.5547002 L35.8320503,41.5547002 C35.6465845,41.8328989 35.3343532,42 35,42 L13,42 C12.6656468,42 12.3534155,41.8328989 12.1679497,41.5547002 L8.16794971,35.5547002 C7.72491322,34.8901455 8.20130462,34 9,34 L39,34 Z M37.1314829,36 L10.8685171,36 L13.5351838,40 L34.4648162,40 L37.1314829,36 Z" id="Shape"></path>
            <path d="M32.8927702,28.367772 C32.3472817,27.7668059 31.714262,27.167198 30.9978083,26.606495 C28.9237816,24.9833437 26.5755042,24 24,24 C21.4227581,24 19.0733227,24.9837234 16.998657,26.6075222 C16.2819626,27.1684644 15.6487844,27.7683306 15.1032039,28.3695569 C14.9883747,28.4960981 14.8853826,28.6136499 14.7944432,28.7206764 C14.7167087,28.7114562 14.6336403,28.7021206 14.5455189,28.6928206 C13.0482372,28.5348028 11.458004,28.5299502 9.94506894,28.7829449 C6.32045839,29.3890564 4,31.3668952 4,35 C4,35.5522847 4.44771525,36 5,36 C5.55228475,36 6,35.5522847 6,35 C6,32.5063548 7.51204161,31.2175686 10.2749311,30.7555551 C11.5830433,30.5368111 13.0030818,30.5411443 14.3356117,30.6817748 C14.6766531,30.7177671 14.9223555,30.7530664 15.0472924,30.7749731 C15.4245149,30.8411163 15.8063813,30.6860071 16.0306346,30.3755523 C16.1179741,30.2546402 16.3049599,30.0213948 16.5842961,29.7135681 C17.0574656,29.1921381 17.6092874,28.6693481 18.231343,28.1824778 C19.9816773,26.8125266 21.9222419,26 24,26 C26.0759958,26 28.0154684,26.8121563 29.7651917,28.181505 C30.3870505,28.668177 30.9387495,29.1907566 31.4118548,29.711978 C31.6911559,30.0196847 31.8781352,30.2528419 31.9654815,30.373713 C32.1871703,30.6804893 32.5630622,30.8358145 32.9366406,30.775013 C33.0534285,30.7560052 33.2840437,30.7253447 33.6054892,30.6940643 C34.9491614,30.5633093 36.390035,30.5680026 37.7190068,30.7958672 C40.4864975,31.2703793 42,32.5415496 42,34.958 C42,35.5102847 42.4477153,35.958 43,35.958 C43.5522847,35.958 44,35.5102847 44,34.958 C44,31.3947004 41.6795025,29.4457457 38.0569932,28.8246328 C36.5261101,28.5621486 34.9178393,28.5569101 33.4117809,28.7034672 C33.3396334,28.710488 33.2711144,28.7175328 33.206391,28.7245155 C33.1142667,28.6159938 33.0096504,28.4965393 32.8927702,28.367772 Z" id="Shape"></path>
            <path d="M11.2966903,8.29309615 C9.39846944,10.1924067 9.6338598,11.5922177 11.2117439,13.6839998 C11.2286335,13.7063895 11.2286335,13.7063895 11.2454066,13.728631 C12.2505612,15.0617024 12.3082093,15.4135772 11.3448932,16.3768932 C10.9543689,16.7674175 10.9543689,17.4005825 11.3448932,17.7911068 C11.7354175,18.1816311 12.3685825,18.1816311 12.7591068,17.7911068 C14.6019129,15.9483007 14.373736,14.5555442 12.8423244,12.5245324 C12.825321,12.5019855 12.825321,12.5019855 12.8084229,12.4795845 C11.7567184,11.0853525 11.6957873,10.7230092 12.7113097,9.70690385 C13.1017219,9.31626752 13.1015402,8.68310256 12.7109039,8.29269035 C12.3202675,7.90227813 11.6871026,7.90245981 11.2966903,8.29309615 Z" id="Shape"></path>
            <path d="M35.2886903,9.70690385 C36.3042127,10.7230092 36.2432816,11.0853525 35.1915771,12.4795845 C35.174679,12.5019855 35.174679,12.5019855 35.1576756,12.5245324 C33.626264,14.5555442 33.3980871,15.9483007 35.2408932,17.7911068 C35.6314175,18.1816311 36.2645825,18.1816311 36.6551068,17.7911068 C37.0456311,17.4005825 37.0456311,16.7674175 36.6551068,16.3768932 C35.6917907,15.4135772 35.7494388,15.0617024 36.7545934,13.728631 C36.7713665,13.7063895 36.7713665,13.7063895 36.7882561,13.6839998 C38.3661402,11.5922177 38.6015306,10.1924067 36.7033097,8.29309615 C36.3128974,7.90245981 35.6797325,7.90227813 35.2890961,8.29269035 C34.8984598,8.68310256 34.8982781,9.31626752 35.2886903,9.70690385 Z" id="Shape"></path>
            <path d="M23.2928932,2.20889322 C20.3129587,5.18882777 20.658364,7.24182015 23.2123948,10.6266422 C23.2409573,10.6644947 23.2409573,10.6644947 23.2694064,10.7022067 C25.2178137,13.2854079 25.3818611,14.2839254 23.3768932,16.2888932 C22.9863689,16.6794175 22.9863689,17.3125825 23.3768932,17.7031068 C23.7674175,18.0936311 24.4005825,18.0936311 24.7911068,17.7031068 C27.6759814,14.8182322 27.3409489,12.778969 24.8661349,9.49785708 C24.8374688,9.45985734 24.8374688,9.45985734 24.8088983,9.4219942 C22.7813045,6.73485199 22.6105109,5.71970268 24.7071068,3.62310678 C25.0976311,3.23258249 25.0976311,2.59941751 24.7071068,2.20889322 C24.3165825,1.81836893 23.6834175,1.81836893 23.2928932,2.20889322 Z" id="Shape"></path>
        </g>
    </g>
</svg>