<?xml version="1.0" encoding="UTF-8"?>
<svg width="48px" height="48px" viewBox="-17 -17 80 80" version="1.1" xmlns="http://www.w3.org/2000/svg" xmlns:xlink="http://www.w3.org/1999/xlink">
    <!-- Generator: Sketch 44.1 (41455) - http://www.bohemiancoding.com/sketch -->
    <title>ic-registration</title>
    <desc>Created with Sketch.</desc>
    <defs></defs>
    <g id="Page-1" stroke="none" stroke-width="1" fill="none" fill-rule="evenodd">
        <g id="ic-registration" fill-rule="nonzero" fill="#3C5369">
            <path d="M38,46 L2,46 L2,6 L29,6 C29.5522847,6 30,5.55228475 30,5 C30,4.44771525 29.5522847,4 29,4 L1,4 C0.44771525,4 0,4.44771525 0,5 L0,47 C0,47.5522847 0.44771525,48 1,48 L39,48 C39.5522847,48 40,47.5522847 40,47 L40,23 C40,22.4477153 39.5522847,22 39,22 C38.4477153,22 38,22.4477153 38,23 L38,46 Z" id="Shape"></path>
            <path d="M25.3270695,27.1707169 L45.8399114,6.65787501 L41.597875,2.41433857 L21.0853099,22.9269036 L17.9036996,30.3521612 L25.3270695,27.1707169 Z M26.2919193,28.933145 L16.3939193,33.175145 C15.56423,33.5307262 14.7253057,32.6918632 15.0808262,31.8621479 L19.3228262,21.9621479 C19.3729415,21.8451885 19.4449181,21.7388683 19.5348932,21.6488932 L40.8908932,0.292893219 C41.2814663,-0.0976798881 41.9147277,-0.0976239166 42.3052318,0.293018227 L47.9612318,5.95101823 C48.3516382,6.34156272 48.3515823,6.9746313 47.9611068,7.36510678 L26.6051068,28.7211068 C26.5151491,28.8110645 26.4088524,28.8830308 26.2919193,28.933145 Z" id="Shape"></path>
            <path d="M44.3651068,9.95089322 L38.7071068,4.29289322 C38.3165825,3.90236893 37.6834175,3.90236893 37.2928932,4.29289322 C36.9023689,4.68341751 36.9023689,5.31658249 37.2928932,5.70710678 L42.9508932,11.3651068 C43.3414175,11.7556311 43.9745825,11.7556311 44.3651068,11.3651068 C44.7556311,10.9745825 44.7556311,10.3414175 44.3651068,9.95089322 Z" id="Shape"></path>
            <path d="M26.3632318,27.9510182 L20.7072318,22.2930182 C20.3167765,21.9024249 19.6836115,21.902313 19.2930182,22.2927682 C18.9024249,22.6832235 18.902313,23.3163885 19.2927682,23.7069818 L24.9487682,29.3649818 C25.3392235,29.7555751 25.9723885,29.755687 26.3629818,29.3652318 C26.7535751,28.9747765 26.753687,28.3416115 26.3632318,27.9510182 Z" id="Shape"></path>
        </g>
    </g>
</svg>