<?xml version="1.0" encoding="UTF-8"?>
<svg width="225px" height="40px" viewBox="0 0 225 40" version="1.1" xmlns="http://www.w3.org/2000/svg" xmlns:xlink="http://www.w3.org/1999/xlink">
    <g id="Page-1" stroke="none" stroke-width="1" fill="none" fill-rule="evenodd">
        <g id="Artboard-2" transform="translate(-33.000000, -38.000000)">
            <g id="vue-conflogo" transform="translate(31.820000, 35.750000)">
                <g id="logo" transform="translate(23.900821, 20.860827) rotate(-180.000000) translate(-23.900821, -20.860827) translate(0.400821, 0.360827)">
                    <g id="Group" transform="translate(0.638377, 0.029123)" fill="#3AB982">
                        <path d="M22.6871408,39.0534693 L7.10542736e-15,-3.55271368e-15 L45.3742815,-3.55271368e-15 L22.6871408,39.0534693 Z M22.6871408,23.4772301 L36.3445738,-3.55271368e-15 L9.02970777,-3.55271368e-15 L22.6871408,23.4772301 Z" id="Shape"></path>
                    </g>
                    <polygon id="Shape" fill="#34495F" points="28.5931004 0.0294228114 36.9825283 0.0294228114 23.3254341 23.505884 9.66833997 0.0294228114 18.0577679 0.0294228114 23.3254341 9.05830286"></polygon>
                </g>
                <g id="typo" transform="translate(58.000000, 12.000000)">
                    <g id="Group" transform="translate(0.205206, 0.571962)" fill-rule="nonzero" fill="#34495F">
                        <polygon id="Shape" points="9.08862214 14.9141751 5.68818643 14.9141751 0.35884858 0.835193804 4.17688166 0.835193804 7.43811825 10.8177483 7.51766061 10.8177483 10.7590116 0.835193804 14.5173879 0.835193804"></polygon>
                        <path d="M37.4876945,9.60472874 C37.4876945,10.4531796 37.3451811,11.2254024 37.0601543,11.9213973 C36.7751275,12.6173921 36.3674729,13.2139591 35.8371906,13.7110983 C35.3069082,14.2082374 34.6672551,14.596006 33.9182312,14.8744039 C33.1692074,15.1528019 32.3373269,15.2920008 31.4225898,15.2920008 C30.4945957,15.2920008 29.6594009,15.1528019 28.9170056,14.8744039 C28.1746103,14.596006 27.5449,14.2082374 27.0278746,13.7110983 C26.5108493,13.2139591 26.1131376,12.6173921 25.8347393,11.9213973 C25.5563411,11.2254024 25.4171419,10.4531796 25.4171419,9.60472874 L25.4171419,0.835193804 L28.7976921,0.835193804 L28.7976921,9.32633081 C28.7976921,9.7107851 28.847406,10.0753538 28.946834,10.420037 C29.0462619,10.7647201 29.1987181,11.0729464 29.4042025,11.3447158 C29.609687,11.6164852 29.8814567,11.8319122 30.2195117,11.9909968 C30.5575667,12.1500813 30.9652213,12.2296236 31.4424754,12.2296236 C31.9197295,12.2296236 32.3273841,12.1500813 32.6654391,11.9909968 C33.0034941,11.8319122 33.2785781,11.6164852 33.4906911,11.3447158 C33.702804,11.0729464 33.8552602,10.7647201 33.9480596,10.420037 C34.040859,10.0753538 34.0872587,9.7107851 34.0872587,9.32633081 L34.0872587,0.835193804 L37.4876945,0.835193804 L37.4876945,9.60472874 Z" id="Shape"></path>
                        <polygon id="Shape" points="50.1174947 14.9141751 50.1174947 0.835193804 59.5830351 0.835193804 59.5830351 3.71860098 53.3986169 3.71860098 53.3986169 6.36338136 59.24498 6.36338136 59.24498 9.087704 53.3986169 9.087704 53.3986169 12.0108823 59.9409757 12.0108823 59.9409757 14.9141751"></polygon>
                        <path d="M94.4623581,12.9653895 C93.8392763,13.6812699 93.0703669,14.2480086 92.1556298,14.6656055 C91.2408927,15.0832024 90.1869565,15.2920008 88.9938211,15.2920008 C87.9067423,15.2920008 86.90252,15.1130307 85.9811544,14.7550905 C85.0597888,14.3971503 84.261051,13.8900684 83.5849409,13.2338447 C82.9088309,12.577621 82.3785485,11.7921411 81.9940938,10.877405 C81.6096391,9.96266894 81.4174117,8.95513356 81.4174117,7.85479887 C81.4174117,6.72795008 81.6129534,5.70715766 82.0040366,4.79242159 C82.3951199,3.87768552 82.935345,3.09883415 83.6247121,2.45586749 C84.3140792,1.81290084 85.1227598,1.31907593 86.050754,0.974392771 C86.9787481,0.629709614 87.9796561,0.457368035 89.0534779,0.457368035 C90.0477574,0.457368035 91.0254655,0.633023875 91.9866023,0.984335554 C92.9477391,1.33564723 93.7265913,1.84935771 94.323159,2.52546698 L92.0164307,4.83219272 C91.6982612,4.39471025 91.2806639,4.06991266 90.7636386,3.85779995 C90.2466133,3.64568724 89.7163309,3.53963088 89.1727914,3.53963088 C88.5762238,3.53963088 88.0293701,3.6490015 87.5322304,3.86774273 C87.0350906,4.08648397 86.6075505,4.38808173 86.2496099,4.77253602 C85.8916693,5.15699031 85.613271,5.61104408 85.4144151,6.13469734 C85.2155592,6.6583506 85.1161313,7.23171777 85.1161313,7.85479887 C85.1161313,8.491137 85.2155592,9.07444696 85.4144151,9.60472874 C85.613271,10.1350105 85.888355,10.5890643 86.2396671,10.9668901 C86.5909791,11.3447158 87.0118908,11.6396851 87.502402,11.8517978 C87.9929132,12.0639105 88.5298241,12.1699669 89.1131347,12.1699669 C89.7892447,12.1699669 90.3791838,12.0373964 90.8829521,11.7722555 C91.3867204,11.5071146 91.7910607,11.1624315 92.095973,10.738206 L94.4623581,12.9653895 Z" id="Shape"></path>
                        <path d="M120.236533,7.81502773 C120.236533,8.92861947 120.044305,9.94609764 119.659851,10.8674622 C119.275396,11.7888268 118.741799,12.577621 118.059061,13.2338447 C117.376322,13.8900684 116.564327,14.3971503 115.623076,14.7550905 C114.681825,15.1130307 113.661031,15.2920008 112.560695,15.2920008 C111.460359,15.2920008 110.44288,15.1130307 109.508257,14.7550905 C108.573635,14.3971503 107.764954,13.8900684 107.082216,13.2338447 C106.399477,12.577621 105.86588,11.7888268 105.481426,10.8674622 C105.096971,9.94609764 104.904744,8.92861947 104.904744,7.81502773 C104.904744,6.68817895 105.096971,5.67070078 105.481426,4.76259324 C105.86588,3.85448569 106.399477,3.08226285 107.082216,2.44592471 C107.764954,1.80958657 108.573635,1.31907593 109.508257,0.974392771 C110.44288,0.629709614 111.460359,0.457368035 112.560695,0.457368035 C113.661031,0.457368035 114.681825,0.629709614 115.623076,0.974392771 C116.564327,1.31907593 117.376322,1.80958657 118.059061,2.44592471 C118.741799,3.08226285 119.275396,3.85448569 119.659851,4.76259324 C120.044305,5.67070078 120.236533,6.68817895 120.236533,7.81502773 Z M116.59747,7.81502773 C116.59747,7.20520369 116.498042,6.63515077 116.299186,6.10486899 C116.10033,5.57458721 115.825246,5.12053344 115.473934,4.74270767 C115.122622,4.3648819 114.698396,4.0665984 114.201256,3.84785717 C113.704117,3.62911593 113.157263,3.51974531 112.560695,3.51974531 C111.964128,3.51974531 111.420588,3.62911593 110.930077,3.84785717 C110.439566,4.0665984 110.01534,4.3648819 109.657399,4.74270767 C109.299459,5.12053344 109.024375,5.57458721 108.832147,6.10486899 C108.63992,6.63515077 108.543806,7.20520369 108.543806,7.81502773 C108.543806,8.45136587 108.643234,9.03799009 108.84209,9.57490039 C109.040946,10.1118107 109.31603,10.572493 109.667342,10.9569473 C110.018654,11.3414016 110.439566,11.6429993 110.930077,11.8617406 C111.420588,12.0804818 111.964128,12.1898524 112.560695,12.1898524 C113.157263,12.1898524 113.700802,12.0804818 114.191314,11.8617406 C114.681825,11.6429993 115.106051,11.3414016 115.463991,10.9569473 C115.821932,10.572493 116.10033,10.1118107 116.299186,9.57490039 C116.498042,9.03799009 116.59747,8.45136587 116.59747,7.81502773 Z" id="Shape"></path>
                        <polygon id="Shape" points="141.317708 14.9141751 135.650315 5.70715766 135.590659 5.70715766 135.670201 14.9141751 132.369193 14.9141751 132.369193 0.835193804 136.246883 0.835193804 141.89439 10.0223256 141.954047 10.0223256 141.874505 0.835193804 145.175513 0.835193804 145.175513 14.9141751"></polygon>
                        <polygon id="Shape" points="161.325062 3.73848655 161.325062 6.64177929 166.773713 6.64177929 166.773713 9.44564421 161.325062 9.44564421 161.325062 14.9141751 157.964397 14.9141751 157.964397 0.835193804 167.231082 0.835193804 167.231082 3.73848655"></polygon>
                    </g>
                    <g id="Group" transform="translate(69.857130, 7.621828)" fill="#3AB982">
                        <ellipse id="Oval" cx="1.50000165" cy="1.4999985" rx="1.50000165" ry="1.4999985"></ellipse>
                    </g>
                </g>
            </g>
        </g>
    </g>
</svg>
