<?xml version="1.0" encoding="UTF-8" standalone="no"?>
<svg width="535px" height="55px" viewBox="0 0 535 55" version="1.1" xmlns="http://www.w3.org/2000/svg" xmlns:xlink="http://www.w3.org/1999/xlink">
    <!-- Generator: Sketch 43 (38999) - http://www.bohemiancoding.com/sketch -->
    <title>Group</title>
    <desc>Created with Sketch.</desc>
    <defs></defs>
    <g id="Page-1" stroke="none" stroke-width="1" fill="none" fill-rule="evenodd">
        <g id="kino-nh-na-bieli">
            <g id="Group">
                <path d="M147.612,16.112 L147.612,15.612 C147.612,14.736 147.237,14.549 146.486,14.549 L140.358,14.549 C139.482,14.549 138.982,15.049 138.982,15.862 L138.982,41.376 C138.982,42.188 139.482,42.688 140.358,42.688 L146.174,42.688 C147.049,42.688 147.612,42.188 147.612,41.376 L147.612,25.117 C147.612,23.178 149.113,21.678 151.239,21.678 C153.991,21.678 154.866,23.178 154.866,25.117 L154.866,41.376 C154.866,42.188 155.491,42.688 156.367,42.688 L162.245,42.688 C163.058,42.688 163.558,42.188 163.558,41.376 L163.558,24.992 C163.558,18.801 160.619,14.111 153.866,14.111 C151.802,14.111 149.3,14.736 147.8,16.175 L147.612,16.112 Z M193.787,32.183 L193.787,24.742 C193.787,17.675 188.785,13.986 181.405,13.986 C173.964,13.986 169.086,18.488 169.086,24.742 L169.086,32.559 C169.086,38.811 174.026,43.064 181.405,43.064 C188.409,43.064 193.787,39.375 193.787,32.183 L193.787,32.183 Z M185.095,32.121 C185.095,34.31 183.657,35.498 181.405,35.498 C179.154,35.498 177.716,34.185 177.716,32.121 L177.716,25.18 C177.716,23.116 179.092,21.615 181.343,21.615 C183.657,21.615 185.095,22.866 185.095,25.054 L185.095,32.121 Z M239.932,16.425 C240.119,15.799 240.057,14.611 238.681,14.611 L233.053,14.611 C231.427,14.611 230.989,15.299 230.739,16.425 L229.238,23.053 L227.425,31.183 L227.237,31.183 L225.049,23.366 L222.86,16.112 C222.422,14.799 221.859,14.611 221.046,14.611 L216.044,14.611 C215.043,14.611 214.48,15.362 214.167,16.362 L212.104,23.366 L209.915,31.183 L209.79,31.12 L207.978,23.366 L206.288,16.175 C206.038,15.049 205.288,14.611 204.037,14.611 L198.471,14.611 C197.095,14.611 196.845,15.612 197.158,16.425 L204.412,41.313 C204.85,42.563 205.288,42.688 206.476,42.688 L211.729,42.688 C212.542,42.688 213.292,42.627 213.73,41.376 L215.856,34.497 L218.545,25.117 L218.67,25.117 L221.109,34.122 L223.298,41.313 C223.673,42.563 224.173,42.688 225.361,42.688 L230.614,42.688 C231.427,42.688 232.303,42.438 232.678,41.376 L239.932,16.425 Z M267.767,28.056 L267.767,25.054 C267.767,18.176 262.888,13.986 255.509,13.986 C248.193,13.986 243.127,18.426 243.127,25.054 L243.127,31.996 C243.127,38.625 248.068,43.064 255.509,43.064 C260.7,43.064 264.639,41.062 266.828,37.186 C267.017,36.874 267.078,36.623 267.078,36.373 C267.078,35.748 266.516,35.31 265.828,34.872 L262.075,32.496 C261.763,32.309 261.45,32.183 261.262,32.183 C260.825,32.183 260.637,32.621 260.324,32.934 C259.386,33.934 257.948,35.498 255.509,35.498 C253.321,35.498 251.82,33.934 251.82,31.996 L251.82,30.245 L265.577,30.245 C266.953,30.245 267.767,29.369 267.767,28.056 L267.767,28.056 Z M255.509,21.302 C257.823,21.302 259.324,22.616 259.324,24.429 L259.324,25.054 L251.945,25.054 L251.945,24.554 C251.945,22.741 253.446,21.302 255.509,21.302 L255.509,21.302 Z M306.787,41.376 L306.726,25.054 C306.726,18.801 304.161,13.986 296.532,13.986 C295.469,13.986 292.654,14.173 290.967,15.299 L290.717,15.299 L290.717,4.168 C290.717,3.292 290.028,2.855 289.277,2.855 L283.462,2.855 C282.586,2.855 282.086,3.355 282.086,4.168 L282.086,41.376 C282.086,42.188 282.586,42.688 283.462,42.688 L289.34,42.688 C290.215,42.688 290.778,42.188 290.778,41.376 L290.778,25.367 C290.778,23.429 291.967,21.615 294.344,21.615 C296.845,21.615 297.971,23.053 297.971,25.054 L297.971,41.376 C297.971,42.188 298.596,42.688 299.472,42.688 L305.411,42.688 C306.225,42.688 306.787,42.188 306.787,41.376 L306.787,41.376 Z M336.686,32.183 L336.686,24.742 C336.686,17.675 331.683,13.986 324.304,13.986 C316.861,13.986 311.984,18.488 311.984,24.742 L311.984,32.559 C311.984,38.811 316.924,43.064 324.304,43.064 C331.308,43.064 336.686,39.375 336.686,32.183 L336.686,32.183 Z M327.993,32.121 C327.993,34.31 326.555,35.498 324.304,35.498 C322.053,35.498 320.613,34.185 320.613,32.121 L320.613,25.18 C320.613,23.116 321.989,21.615 324.24,21.615 C326.555,21.615 327.993,22.866 327.993,25.054 L327.993,32.121 Z M361.036,16.112 C361.286,15.237 361.286,14.674 360.16,14.298 C359.16,13.986 358.223,13.861 357.284,13.861 C354.532,13.861 352.094,15.174 350.655,17.55 L350.405,17.425 L350.405,15.862 C350.405,14.924 349.717,14.611 348.967,14.611 L343.714,14.611 C342.838,14.611 342.338,15.111 342.338,15.924 L342.338,41.376 C342.338,42.188 342.838,42.688 343.714,42.688 L349.53,42.688 C350.405,42.688 350.969,42.188 350.969,41.376 L350.969,28.244 C350.969,24.492 352.094,21.99 355.721,21.99 C356.408,21.99 357.284,22.115 358.159,22.303 C359.16,22.491 359.41,22.303 359.724,21.115 L361.036,16.112 Z M392.197,16.425 C392.572,15.237 391.885,14.549 391.01,14.549 L385.005,14.549 C383.817,14.549 383.379,15.111 383.129,15.924 L377.876,34.31 L377.751,34.31 L376.125,26.368 L373.499,15.924 C373.249,15.111 372.999,14.549 371.936,14.549 L365.244,14.549 C364.369,14.549 363.807,15.049 364.119,16.112 L371.623,41.376 C371.873,42.127 372.248,42.688 373.249,42.688 L375,42.688 L372.248,52.382 C371.811,53.57 372.437,54.071 373.312,54.071 L379.064,54.071 C379.94,54.071 380.503,53.508 380.753,52.757 L392.197,16.425 Z M420.237,41.376 L420.237,36.436 C420.237,35.56 419.612,35.123 418.862,35.123 L408.106,35.123 L418.611,22.178 C419.362,21.302 419.549,20.239 419.549,19.489 L419.549,16.425 C419.549,15.362 418.987,14.611 417.298,14.611 L397.537,14.611 C396.725,14.611 396.161,15.111 396.161,15.924 L396.161,20.865 C396.161,21.678 396.725,22.178 397.537,22.178 L407.793,22.178 L396.475,35.998 C395.85,36.749 395.661,37.936 395.661,38.686 L395.661,40.626 C395.661,41.813 396.161,42.688 397.976,42.688 L418.862,42.688 C419.737,42.688 420.237,42.188 420.237,41.376 L420.237,41.376 Z M449.441,32.183 L449.441,24.742 C449.441,17.675 444.438,13.986 437.06,13.986 C429.617,13.986 424.74,18.488 424.74,24.742 L424.74,32.559 C424.74,38.811 429.681,43.064 437.06,43.064 C444.063,43.064 449.441,39.375 449.441,32.183 L449.441,32.183 Z M440.748,32.121 C440.748,34.31 439.311,35.498 437.06,35.498 C434.809,35.498 433.369,34.185 433.369,32.121 L433.369,25.18 C433.369,23.116 434.745,21.615 436.996,21.615 C439.311,21.615 440.748,22.866 440.748,25.054 L440.748,32.121 Z M463.725,16.112 L463.725,15.612 C463.725,14.736 463.35,14.549 462.599,14.549 L456.471,14.549 C455.595,14.549 455.095,15.049 455.095,15.862 L455.095,41.376 C455.095,42.188 455.595,42.688 456.471,42.688 L462.286,42.688 C463.161,42.688 463.725,42.188 463.725,41.376 L463.725,25.117 C463.725,23.178 465.226,21.678 467.352,21.678 C470.103,21.678 470.979,23.178 470.979,25.117 L470.979,41.376 C470.979,42.188 471.604,42.688 472.479,42.688 L478.357,42.688 C479.17,42.688 479.67,42.188 479.67,41.376 L479.67,24.992 C479.67,18.801 476.731,14.111 469.978,14.111 C467.914,14.111 465.412,14.736 463.911,16.175 L463.725,16.112 Z M496.643,14.611 L496.643,7.67 C496.643,6.982 496.329,6.419 495.454,6.419 C495.267,6.419 495.078,6.419 494.892,6.482 L489.389,7.67 C488.513,7.857 488.013,8.545 488.013,9.358 L488.013,14.611 L485.073,14.611 C484.197,14.611 483.822,15.111 483.822,15.924 L483.822,20.052 C483.822,20.865 484.197,21.365 485.073,21.365 L488.075,21.365 L488.075,34.435 C488.075,39.061 489.889,43.064 497.33,43.064 C499.269,43.064 501.27,42.938 502.958,42.502 C503.583,42.313 504.584,42.001 504.271,40.437 L503.521,36.436 C503.208,34.935 502.833,34.998 501.457,35.185 C501.02,35.248 499.331,35.373 498.956,35.373 C497.393,35.373 496.643,34.747 496.643,33.121 L496.643,21.365 L502.082,21.365 C502.958,21.365 503.271,20.865 503.271,20.052 L503.271,15.924 C503.271,15.111 502.958,14.611 502.082,14.611 L496.643,14.611 Z M534.825,16.425 C535.2,15.237 534.514,14.549 533.638,14.549 L527.635,14.549 C526.445,14.549 526.008,15.111 525.758,15.924 L520.505,34.31 L520.38,34.31 L518.754,26.368 L516.127,15.924 C515.877,15.111 515.627,14.549 514.564,14.549 L507.873,14.549 C506.997,14.549 506.435,15.049 506.747,16.112 L514.251,41.376 C514.501,42.127 514.877,42.688 515.877,42.688 L517.628,42.688 L514.877,52.382 C514.439,53.57 515.064,54.071 515.94,54.071 L521.693,54.071 C522.568,54.071 523.131,53.508 523.381,52.757 L534.825,16.425 L534.825,16.425 Z" id="Fill-1" fill="#6F8F9D"></path>
                <path d="M122.849,48.567 L122.849,1.729 C122.849,0.916 122.286,0.416 121.411,0.416 L117.971,0.416 C117.096,0.416 116.596,0.916 116.596,1.729 L116.596,48.567 C116.596,49.381 117.096,49.881 117.971,49.881 L121.411,49.881 C122.286,49.881 122.849,49.381 122.849,48.567" id="Fill-2" fill="#D8117D"></path>
                <path d="M25.559,35.06 C25.309,30.495 24.684,26.43 19.867,25.054 C19.43,24.929 19.054,24.804 17.741,24.742 L25.496,15.987 C26.059,15.362 25.747,14.611 24.996,14.611 L17.491,14.611 C15.99,14.611 15.865,14.674 15.052,15.612 L9.674,21.928 L9.487,21.865 L9.487,4.168 C9.487,3.292 8.924,2.855 8.173,2.855 L2.232,2.855 C1.357,2.855 0.857,3.355 0.857,4.168 L0.857,41.376 C0.857,42.189 1.107,42.689 1.982,42.689 L8.298,42.689 C9.174,42.689 9.487,42.189 9.487,41.376 L9.487,34.372 C9.487,32.496 10.862,30.87 13.239,30.87 C15.615,30.87 16.741,32.434 16.866,34.372 L17.303,41.376 C17.366,42.189 17.679,42.689 18.554,42.689 L24.809,42.689 C25.559,42.689 25.997,42.252 25.934,41.376 L25.559,35.06 Z M40.316,7.232 C40.316,4.668 38.065,2.542 35.438,2.542 C32.688,2.542 30.499,4.606 30.499,7.232 C30.499,9.796 32.688,11.922 35.438,11.922 C38.065,11.922 40.316,9.733 40.316,7.232 L40.316,7.232 Z M39.753,41.376 L39.753,15.924 C39.753,15.049 39.065,14.549 38.315,14.549 L32.5,14.549 C31.625,14.549 31.124,15.049 31.124,15.924 L31.124,41.376 C31.124,42.189 31.625,42.689 32.5,42.689 L38.315,42.689 C39.19,42.689 39.753,42.189 39.753,41.376 L39.753,41.376 Z M54.537,16.112 L54.537,15.612 C54.537,14.736 54.16,14.549 53.41,14.549 L47.282,14.549 C46.406,14.549 45.906,15.049 45.906,15.862 L45.906,41.376 C45.906,42.189 46.406,42.689 47.282,42.689 L53.097,42.689 C53.974,42.689 54.537,42.189 54.537,41.376 L54.537,25.117 C54.537,23.178 56.037,21.678 58.164,21.678 C60.915,21.678 61.791,23.178 61.791,25.117 L61.791,41.376 C61.791,42.189 62.416,42.689 63.292,42.689 L69.169,42.689 C69.982,42.689 70.482,42.189 70.482,41.376 L70.482,24.992 C70.482,18.801 67.543,14.111 60.79,14.111 C58.726,14.111 56.225,14.736 54.724,16.174 L54.537,16.112 Z M100.711,32.183 L100.711,24.742 C100.711,17.675 95.708,13.986 88.33,13.986 C80.887,13.986 76.01,18.488 76.01,24.742 L76.01,32.559 C76.01,38.811 80.95,43.064 88.33,43.064 C95.333,43.064 100.711,39.375 100.711,32.183 L100.711,32.183 Z M92.02,32.121 C92.02,34.31 90.581,35.498 88.33,35.498 C86.079,35.498 84.641,34.185 84.641,32.121 L84.641,25.179 C84.641,23.116 86.016,21.615 88.268,21.615 C90.581,21.615 92.02,22.866 92.02,25.054 L92.02,32.121 L92.02,32.121 Z" id="Fill-3" fill="#6F8F9D"></path>
            </g>
        </g>
    </g>
</svg>