<?xml version="1.0" encoding="UTF-8"?>
<svg width="500px" height="121px" viewBox="0 0 500 121" version="1.1" xmlns="http://www.w3.org/2000/svg" xmlns:xlink="http://www.w3.org/1999/xlink">
    <!-- Generator: Sketch 43.2 (39069) - http://www.bohemiancoding.com/sketch -->
    <title>logo_codeship_colour</title>
    <desc>Created with Sketch.</desc>
    <defs>
        <polygon id="path-1" points="0.06 120.94 499.042 120.94 499.042 0.936 0.06 0.936"></polygon>
    </defs>
    <g id="Page-1" stroke="none" stroke-width="1" fill="none" fill-rule="evenodd">
        <g id="logo_codeship_colour">
            <path d="M165.372,79.362 C155.176,79.362 146.977,71.163 146.977,60.967 C146.977,50.772 155.176,42.573 165.372,42.573 C170.522,42.573 175.042,43.837 178.407,47.204 C179.456,48.252 179.456,49.83 178.407,50.881 C177.355,51.934 175.673,52.036 174.622,50.985 C172.203,48.569 169.049,47.829 165.372,47.829 C158.119,47.829 152.233,53.713 152.233,60.967 C152.233,68.221 158.119,74.106 165.372,74.106 C169.049,74.106 172.309,73.471 174.726,71.055 C175.778,70.004 177.355,70.004 178.407,71.055 C179.456,72.104 179.456,73.682 178.407,74.735 C175.042,78.096 170.522,79.362 165.372,79.362" id="Fill-1" fill="#323D45"></path>
            <path d="M210.26,74.106 C217.513,74.106 223.399,68.221 223.399,60.967 C223.399,53.713 217.513,47.829 210.26,47.829 C203.006,47.829 197.121,53.713 197.121,60.967 C197.121,68.221 203.006,74.106 210.26,74.106 Z M210.26,42.573 C220.456,42.573 228.655,50.772 228.655,60.967 C228.655,71.163 220.456,79.362 210.26,79.362 C200.064,79.362 191.865,71.163 191.865,60.967 C191.865,50.772 200.064,42.573 210.26,42.573 L210.26,42.573 Z" id="Fill-2" fill="#323D45"></path>
            <path d="M250.736,48.145 L250.736,73.791 L259.67,73.791 C266.922,73.791 272.808,68.221 272.808,60.967 C272.808,53.713 266.922,48.145 259.67,48.145 L250.736,48.145 Z M259.67,43.098 C269.866,43.098 278.065,50.772 278.065,60.967 C278.065,71.163 269.866,78.838 259.67,78.838 L248.106,78.838 C246.635,78.838 245.479,77.68 245.479,76.209 L245.479,45.725 C245.479,44.253 246.635,43.098 248.106,43.098 L259.67,43.098 L259.67,43.098 Z" id="Fill-3" fill="#323D45"></path>
            <path d="M322.743,73.791 C324.213,73.791 325.37,74.844 325.37,76.315 C325.37,77.788 324.213,78.838 322.743,78.838 L297.514,78.838 C296.043,78.838 294.889,77.68 294.889,76.209 L294.889,45.725 C294.889,44.253 296.043,43.098 297.514,43.098 L322.743,43.098 C324.213,43.098 325.37,44.149 325.37,45.621 C325.37,47.092 324.213,48.145 322.743,48.145 L300.143,48.145 L300.143,58.024 L317.487,58.024 C318.958,58.024 320.116,59.077 320.116,60.547 C320.116,62.018 318.958,63.071 317.487,63.071 L300.143,63.071 L300.143,73.791 L322.743,73.791" id="Fill-4" fill="#323D45"></path>
            <path d="M415.994,62.543 L391.817,62.543 L391.817,76.418 C391.817,77.891 390.66,79.049 389.189,79.049 C387.717,79.049 386.561,77.891 386.561,76.418 L386.561,45.515 C386.561,44.043 387.717,42.889 389.189,42.889 C390.66,42.889 391.817,44.043 391.817,45.515 L391.817,57.498 L415.994,57.498 L415.994,45.515 C415.994,44.043 417.149,42.889 418.621,42.889 C420.092,42.889 421.25,44.043 421.25,45.515 L421.25,76.418 C421.25,77.891 420.092,79.049 418.621,79.049 C417.149,79.049 415.994,77.891 415.994,76.418 L415.994,62.543" id="Fill-5" fill="#323D45"></path>
            <path d="M447.535,76.418 C447.535,77.891 446.377,79.049 444.907,79.049 C443.435,79.049 442.279,77.891 442.279,76.418 L442.279,45.515 C442.279,44.043 443.435,42.889 444.907,42.889 C446.377,42.889 447.535,44.043 447.535,45.515 L447.535,76.418" id="Fill-6" fill="#323D45"></path>
            <g id="Group-10">
                <mask id="mask-2" fill="white">
                    <use xlink:href="#path-1"></use>
                </mask>
                <g id="Clip-8"></g>
                <path d="M473.816,48.145 L473.816,60.967 L487.584,60.967 C491.266,60.967 493.789,57.918 493.789,54.555 C493.789,51.192 491.266,48.145 487.584,48.145 L473.816,48.145 Z M487.584,43.098 C493.892,43.098 499.042,48.248 499.042,54.555 C499.042,60.864 493.892,66.014 487.584,66.014 L473.816,66.014 L473.816,76.524 C473.816,77.997 472.659,79.049 471.188,79.049 C469.716,79.049 468.561,77.891 468.561,76.418 L468.561,45.725 C468.561,44.253 469.716,43.098 471.188,43.098 L487.584,43.098 L487.584,43.098 Z" id="Fill-7" fill="#323D45" mask="url(#mask-2)"></path>
                <path d="M60.033,7.025 C30.288,7.025 6.089,31.224 6.089,60.969 C6.089,90.713 30.288,114.913 60.033,114.913 C89.777,114.913 113.975,90.713 113.975,60.969 C113.975,31.224 89.777,7.025 60.033,7.025 Z M60.033,121 C26.931,121 0,94.071 0,60.969 C0,27.867 26.931,0.936 60.033,0.936 C93.134,0.936 120.063,27.867 120.063,60.969 C120.063,94.071 93.134,121 60.033,121 L60.033,121 Z" id="Fill-9" fill="#323D45" mask="url(#mask-2)"></path>
            </g>
            <path d="M50.656,27.348 L50.656,17.631 C50.656,16.231 56.167,14.668 59.905,14.668 C63.641,14.668 69.35,16.231 69.35,17.631 L69.35,27.328 C66.196,26.732 62.827,26.318 59.995,26.318 C57.131,26.318 53.772,26.742 50.656,27.348" id="Fill-11" fill="#5E636B"></path>
            <path d="M46.698,86.555 C38.452,86.555 31.726,84 29.223,83.741 C25.503,83.355 21.555,79.711 17.974,79.711 C17.38,79.711 16.795,79.812 16.223,80.044 C15.423,78.172 14.738,76.243 14.177,74.258 C20.031,68.921 25.587,67.168 30.36,67.168 C39.436,67.168 45.675,73.509 45.701,73.598 C46.188,74.051 55.135,80.66 59.939,81.731 L63.604,82.196 C57.815,85.52 51.949,86.555 46.698,86.555" id="Fill-12" fill="#656A71"></path>
            <polyline id="Fill-13" fill="#A54288" points="16.31 80.264 16.319 80.26 16.238 80.082 16.31 80.264"></polyline>
            <path d="M79.963,45.536 L79.963,35.401 C79.963,34 67.894,30.779 59.995,30.779 C52.096,30.779 40.447,34 40.447,35.401 L40.447,45.411 C49.693,38.799 59.832,35.854 59.832,35.854 C59.863,35.846 70.642,38.821 79.963,45.536" id="Fill-14" fill="#323D45"></path>
            <path d="M84.83,65.508 C81.84,66.08 78.336,70.375 73.802,74.717 C75.589,68.317 78.84,61.14 84.723,54.954 C83.139,53.517 81.523,52.209 79.918,51.021 L79.918,50.995 C74.008,46.633 67.169,42.887 60.077,40.83 L60.07,40.832 C57.138,41.597 54.25,42.969 51.53,44.263 C45.671,47.05 40.161,50.58 35.35,54.946 L35.34,54.954 C40.581,60.268 43.703,66.948 45.571,73.187 C45.612,73.323 45.661,73.462 45.701,73.598 C46.187,74.051 46.691,74.5 47.196,74.93 C50.879,78.065 55.046,80.648 59.849,81.719 L59.831,81.572 L57.945,66.315 L57.465,56.044 L60.045,44.288 L62.412,56.044 L61.848,66.341 L60.161,81.645 L60.146,81.78 L63.604,82.196 C58.004,84.773 49.261,86.174 40.195,81.835 C36.536,80.084 32.995,78.418 28.897,77.995 C24.559,77.545 20.238,78.411 16.223,80.044 L16.221,80.045 L16.238,80.082 L16.319,80.26 C24.075,97.905 42.216,109.417 61.497,108.83 C80.405,108.253 97.594,96.07 104.48,78.461 C104.855,77.504 105.198,76.536 105.509,75.557 C99.003,70.768 88.781,64.75 84.83,65.508" id="Fill-15" fill="#323D45"></path>
            <path d="M84.83,65.508 C88.781,64.75 81.84,66.08 84.83,65.508" id="Fill-16" fill="#323D45"></path>
            <path d="M354.551,80.283 C354.106,80.283 353.684,80.27 353.261,80.244 C349.738,80.08 346.306,78.725 343.847,76.523 C343.371,76.005 343.155,75.41 343.227,74.833 C343.297,74.279 343.629,73.781 344.163,73.434 C344.635,73.126 345.241,72.957 345.868,72.957 C346.695,72.957 347.458,73.251 347.908,73.745 C349.389,75.013 351.542,75.832 353.65,75.92 C353.956,75.938 354.234,75.947 354.507,75.947 C359.046,75.947 362.185,73.71 362.503,70.247 C362.838,66.43 358.879,64.661 354.294,62.613 C349.032,60.259 343.075,57.595 343.65,51.094 C344.14,45.688 348.696,42.46 355.836,42.46 C356.306,42.46 356.792,42.474 357.28,42.502 C360.634,42.667 363.744,43.895 366.032,45.958 C366.509,46.422 366.747,46.987 366.705,47.555 C366.663,48.121 366.347,48.642 365.817,49.022 C365.253,49.362 364.626,49.537 363.991,49.537 C363.171,49.537 362.435,49.245 361.971,48.736 C360.645,47.593 358.873,46.908 356.862,46.77 C356.644,46.76 356.403,46.754 356.164,46.754 C351.989,46.754 349.378,48.379 349.179,51.1 C348.786,55.149 352.794,56.95 357.436,59.035 C362.658,61.381 368.577,64.041 367.966,70.59 C367.454,76.387 362.063,80.283 354.551,80.283" id="Fill-17" fill="#323D45"></path>
        </g>
    </g>
</svg>