<?xml version="1.0" encoding="utf-8"?>
<!-- Generator: Adobe Illustrator 19.0.0, SVG Export Plug-In . SVG Version: 6.00 Build 0)  -->
<svg version="1.1" id="Layer_1" xmlns="http://www.w3.org/2000/svg" xmlns:xlink="http://www.w3.org/1999/xlink" x="0px" y="0px"
	 viewBox="0 0 261 261" style="enable-background:new 0 0 261 261;" xml:space="preserve">
<style type="text/css">
	.st0{fill:#3D5AFE;}
	.st1{fill:#FFFFFF;}
</style>
<g>
	<path id="XMLID_2_" class="st0" d="M0.5,195.5c0,35.9,29.1,65,65,65h130c35.9,0,65-29.1,65-65v-130c0-35.9-29.1-65-65-65h-130
		c-35.9,0-65,29.1-65,65V195.5z"/>
	<path id="XMLID_1_" class="st1" d="M238.9,130.5c-12,0-21.7-9.7-21.7-21.7v0l0,0V65.5c0-12-9.7-21.7-21.7-21.7h-21.7v108.4
		L87.2,43.8v0H65.5c-12,0-21.7,9.7-21.7,21.7v43.4c0,12-9.7,21.7-21.7,21.7l0,0v0l0,0c12,0,21.7,9.7,21.7,21.7v43.4
		c0,12,9.7,21.7,21.7,21.7h21.7V108.9l86.7,108.3h21.7c12,0,21.7-9.7,21.7-21.7v-43.3l0,0v0C217.2,140.2,226.9,130.5,238.9,130.5
		L238.9,130.5L238.9,130.5L238.9,130.5z"/>
</g>
</svg>
