<?xml version="1.0" encoding="utf-8"?>
<!-- Generator: Adobe Illustrator 19.0.0, SVG Export Plug-In . SVG Version: 6.00 Build 0)  -->
<svg version="1.1" id="Monaca_Logo" xmlns="http://www.w3.org/2000/svg" xmlns:xlink="http://www.w3.org/1999/xlink" x="0px"
	 y="0px" viewBox="0 0 283.5 62.6" style="enable-background:new 0 0 283.5 62.6;" xml:space="preserve">
<style type="text/css">
	.st0{fill:#424242;}
	.st1{fill:#00629D;}
</style>
<g>
	<g>
		<path class="st0" d="M116.5,48.7c-0.9,0-3.2,0-3.2,0s0-2.5,0-3.5V23.6L103.8,40c-0.8,1.2-1.1,1.8-1.6,2.1
			c-0.7,0.6-1.6,0.8-2.6,0.8c-1,0-1.9-0.2-2.6-0.8c-0.4-0.3-0.7-0.7-1.6-2.1l-10-16.5v21.7c0,1,0,3.5,0,3.5s-2.3,0-3.2,0
			c-0.9,0-1.7-0.4-2.3-1c-0.6-0.7-0.9-1.5-0.9-2.4v-27c0-1.3,0.4-2.4,1.2-3.3c0.8-0.9,1.9-1.4,3.1-1.4h1.8c0.9,0,1.7,0.3,2.5,0.9
			c0.7,0.6,0.9,1.1,1.5,2.1l10.5,17.8l10.1-17.8c0.8-1.1,0.9-1.5,1.5-2.1c0.7-0.6,1.6-0.9,2.5-0.9h1.8c1.2,0,2.2,0.5,3.1,1.4
			c0.8,0.9,1.2,2,1.2,3.3v27c0,1-0.3,1.8-0.9,2.4C118.2,48.4,117.4,48.7,116.5,48.7z"/>
		<path class="st0" d="M141.7,49c-4.4,0-8-1.6-10.6-4.6c-2.6-3-3.9-7.1-3.9-12c0-4.9,1.3-8.9,3.9-12c2.6-3.1,6.2-4.6,10.6-4.6
			c4.4,0,7.9,1.6,10.6,4.6c2.6,3.1,3.9,7.1,3.9,12c0,4.9-1.3,8.9-3.9,12C149.6,47.5,146.1,49,141.7,49z M141.7,22.4
			c-3.5,0-5.9,1.7-7.3,5.3c-0.5,1.3-0.8,2.9-0.8,4.8c0,1.9,0.3,3.5,0.8,4.8c0.5,1.3,1.1,2.3,1.9,3.1c0.8,0.8,1.6,1.3,2.6,1.7
			c1,0.4,1.9,0.5,2.8,0.5c0.9,0,1.9-0.2,2.8-0.5c0.9-0.4,1.8-0.9,2.6-1.7c1.8-1.8,2.7-4.4,2.7-7.9c0-3.3-0.9-6-2.7-7.8
			C145.6,23.1,143.8,22.4,141.7,22.4z"/>
		<path class="st0" d="M186,48.7c-0.9,0-3.2,0-3.2,0s0-2.5,0-3.5V28.9c0-2.1-0.4-3.7-1.2-4.9c-0.8-1.1-2-1.6-3.9-1.6
			c-2.8,0-5.5,1.7-8,5.2v17.6c0,1,0,3.5,0,3.5s-2.4,0-3.2,0c-0.9,0-1.7-0.4-2.3-1c-0.6-0.7-0.9-1.5-0.9-2.4V19.7
			c0-1,0.3-1.8,0.9-2.5c0.6-0.7,1.4-1,2.3-1c0.9,0,1.7,0.3,2.3,1c0.6,0.7,0.9,1.5,0.9,2.5v0.4c0.9-0.9,1.7-1.7,2.5-2.1
			c2.2-1.4,4.3-2.1,6.3-2.1c2,0,3.6,0.3,4.9,1c1.3,0.7,2.4,1.6,3.3,2.8c1.8,2.3,2.7,5.2,2.7,8.7v16.9c0,1-0.3,1.8-0.9,2.4
			C187.7,48.4,186.9,48.7,186,48.7z"/>
		<path class="st0" d="M205,49c-2.7,0-4.9-0.9-6.7-2.6c-1.9-1.8-2.8-4.2-2.8-7.1c0-3.2,1.1-5.7,3.3-7.5c2.3-1.9,5.6-2.9,9.8-2.9h5.7
			c0-2.3-0.6-3.9-1.5-4.8c-1-1-2.7-1.5-4.9-1.5c-2,0-4.3,0.5-6.9,1.4c0,0,0,0-0.1,0c-0.4,0.1-0.7,0.1-1.2,0.1
			c-0.6,0-1.2-0.3-1.7-0.9c-0.5-0.6-0.8-1.4-0.8-2.5c0-0.8,0.3-2,1.8-2.7c3.1-1.5,6.3-2.2,9.7-2.2c3.9,0,6.9,1.3,9.1,4
			c1.9,2.3,2.9,5.2,2.9,8.5v16.9c0,1-0.3,1.8-0.9,2.4c-0.6,0.7-1.4,1-2.3,1c-0.9,0-3.2,0-3.2,0v-3.2c-0.8,0.7-1.7,1.3-2.7,1.9
			C209.8,48.5,207.6,49,205,49z M209.2,34.8c-2.4,0-4.3,0.3-5.6,1c-1.2,0.6-1.7,1.5-1.7,2.9c0,1.7,0.5,4,4.9,4c1.5,0,3-0.4,4.3-1.3
			c1.3-0.8,2.4-1.7,3.2-2.7v-3.9H209.2z"/>
		<path class="st0" d="M241.7,49c-4.2,0-7.7-1.5-10.6-4.4c-3-3.1-4.5-7.2-4.5-12.2c0-5,1.5-9.1,4.5-12.2c2.9-2.9,6.4-4.4,10.6-4.4
			c2.2,0,4.1,0.3,5.6,1c1.4,0.6,2.6,1.3,3.4,1.9c1,0.7,1.6,1.6,1.6,2.6c0,0.9-0.3,1.7-0.8,2.3c-0.5,0.7-1.2,1.1-1.8,1.1
			c-0.8,0-1.5-0.2-2.3-0.7c-1.7-1-3.5-1.6-5.3-1.6c-2.9,0-5.1,0.9-6.7,2.7c-1.6,1.8-2.4,4.3-2.4,7.3c0,3,0.8,5.5,2.4,7.3
			c1.6,1.8,3.8,2.7,6.7,2.7c1.8,0,3.6-0.5,5.3-1.6c0.8-0.5,1.5-0.7,2.1-0.7c0.5,0,1.3,0.2,2,1.1c0.5,0.7,0.8,1.4,0.8,2.3
			c0,1-0.5,1.9-1.6,2.6C248.1,48.1,245.1,49,241.7,49z"/>
		<path class="st0" d="M267.7,49c-2.7,0-4.9-0.9-6.7-2.6c-1.9-1.8-2.8-4.2-2.8-7.1c0-3.2,1.1-5.7,3.3-7.5c2.3-1.9,5.6-2.9,9.8-2.9
			h5.7c0-2.3-0.6-3.9-1.5-4.8c-1-1-2.7-1.5-4.9-1.5c-2,0-4.3,0.5-6.9,1.4c0,0,0,0-0.1,0c-0.4,0.1-0.8,0.1-1.2,0.1
			c-0.6,0-1.2-0.3-1.7-0.9c-0.5-0.6-0.8-1.4-0.8-2.5c0-0.8,0.3-2,1.8-2.7c3.1-1.5,6.3-2.2,9.7-2.2c3.9,0,6.9,1.3,9.1,4
			c1.9,2.3,2.9,5.2,2.9,8.5v16.9c0,1-0.3,1.8-0.9,2.4c-0.6,0.7-1.4,1-2.3,1c-0.9,0-3.2,0-3.2,0l0-3.2c-0.8,0.7-1.7,1.3-2.7,1.9
			C272.6,48.5,270.3,49,267.7,49z M272,34.8c-2.4,0-4.3,0.3-5.6,1c-1.2,0.6-1.7,1.5-1.7,2.9c0,1.7,0.5,4,4.9,4c1.5,0,3-0.4,4.3-1.3
			c1.3-0.8,2.4-1.7,3.2-2.7v-3.9H272z"/>
	</g>
	<path class="st1" d="M50.6,0H12C5.4,0,0,5.4,0,12v38.6c0,6.6,5.4,12,12,12h38.6c6.6,0,12-5.4,12-12V12C62.6,5.4,57.2,0,50.6,0z
		 M43.5,43.5H19.1V19.1h24.3V43.5z"/>
</g>
</svg>
