<?xml version="1.0" encoding="UTF-8" standalone="no"?>
<!DOCTYPE svg PUBLIC "-//W3C//DTD SVG 1.1//EN" "http://www.w3.org/Graphics/SVG/1.1/DTD/svg11.dtd">
<svg width="100%" height="100%" viewBox="0 0 15 15" version="1.1" xmlns="http://www.w3.org/2000/svg" xmlns:xlink="http://www.w3.org/1999/xlink" xml:space="preserve" style="fill-rule:evenodd;clip-rule:evenodd;stroke-linejoin:round;stroke-miterlimit:1.41421;">
    <g transform="matrix(1,0,0,1,-16198.4,-2949.15)">
        <g transform="matrix(1.125,0,0,3.51198,16008.8,2875.88)">
            <g transform="matrix(1.12572,0,0,0.360604,-1889,-415.367)">
                <path d="M1833.65,1209.72C1833.94,1209.73 1834.23,1209.75 1834.52,1209.81C1835.08,1209.9 1835.63,1210.09 1836.13,1210.35C1836.75,1210.66 1837.31,1211.09 1837.78,1211.61C1838.22,1212.09 1838.58,1212.65 1838.83,1213.25C1839.05,1213.78 1839.2,1214.35 1839.26,1214.92C1839.32,1215.55 1839.28,1216.19 1839.14,1216.81C1838.94,1217.67 1838.53,1218.49 1837.97,1219.18C1837.38,1219.9 1836.61,1220.47 1835.75,1220.83C1835.04,1221.13 1834.27,1221.29 1833.5,1221.29C1832.73,1221.29 1831.96,1221.13 1831.25,1220.83C1830.48,1220.5 1829.77,1220.01 1829.21,1219.39C1828.59,1218.69 1828.13,1217.85 1827.9,1216.95C1827.75,1216.38 1827.69,1215.79 1827.72,1215.21C1827.75,1214.59 1827.89,1213.97 1828.11,1213.39C1828.37,1212.74 1828.75,1212.13 1829.21,1211.61C1829.68,1211.1 1830.25,1210.66 1830.87,1210.35C1831.37,1210.09 1831.92,1209.9 1832.48,1209.81C1832.72,1209.76 1832.96,1209.74 1833.2,1209.72C1833.35,1209.72 1833.5,1209.71 1833.65,1209.72ZM1833.42,1212.29C1832.93,1212.31 1832.47,1212.42 1832.04,1212.64C1831.7,1212.81 1831.38,1213.05 1831.12,1213.34C1830.83,1213.67 1830.6,1214.05 1830.45,1214.48C1830.37,1214.7 1830.33,1214.94 1830.3,1215.17C1830.26,1215.55 1830.29,1215.94 1830.39,1216.3C1830.44,1216.53 1830.53,1216.75 1830.63,1216.95C1830.77,1217.21 1830.93,1217.45 1831.12,1217.66C1831.43,1218.01 1831.83,1218.28 1832.25,1218.46C1832.64,1218.63 1833.07,1218.71 1833.5,1218.71C1833.93,1218.71 1834.36,1218.63 1834.75,1218.46C1835.69,1218.06 1836.4,1217.22 1836.63,1216.23C1836.71,1215.88 1836.73,1215.52 1836.7,1215.16C1836.67,1214.85 1836.58,1214.54 1836.46,1214.25C1836.32,1213.91 1836.12,1213.61 1835.88,1213.34C1835.62,1213.05 1835.31,1212.81 1834.96,1212.64C1834.56,1212.43 1834.12,1212.32 1833.67,1212.29C1833.58,1212.29 1833.5,1212.29 1833.42,1212.29Z" style="fill:rgb(58,185,130);fill-rule:nonzero;"/>
            </g>
        </g>
    </g>
</svg>
