<?xml version="1.0" encoding="UTF-8"?>
<svg width="930px" height="115px" viewBox="0 0 930 115" version="1.1" xmlns="http://www.w3.org/2000/svg" xmlns:xlink="http://www.w3.org/1999/xlink">
    <!-- Generator: Sketch 47.1 (45422) - http://www.bohemiancoding.com/sketch -->
    <title>vueconf-title</title>
    <desc>Created with Sketch.</desc>
    <defs></defs>
    <g id="Page-1" stroke="none" stroke-width="1" fill="none" fill-rule="evenodd">
        <g id="vueconf-title" fill="#FFFFFF">
            <polygon id="Fill-109" points="73.304 113.71 117.36 1.57 88.043 1.57 59.367 84.07 30.691 1.57 0.252 1.57 43.827 113.71"></polygon>
            <path d="M250.168,1.57 L221.812,1.57 L221.812,66.61 C221.812,81.83 212.681,91.12 199.224,91.12 C185.607,91.12 175.834,81.83 175.834,66.61 L175.834,1.57 L147.318,1.57 L147.318,66.61 C147.318,96.25 167.504,114.99 199.064,114.99 C230.463,114.99 250.168,96.25 250.168,66.61 L250.168,1.57 Z" id="Fill-110"></path>
            <polygon id="Fill-111" points="379.292 24 379.292 1.57 291.5 1.57 291.5 113.71 381.054 113.71 381.054 91.28 320.017 91.28 320.017 68.69 373.524 68.69 373.524 46.26 320.017 46.26 320.017 24"></polygon>
            <path d="M472.85,0.61 C438.727,0.61 412.934,24.96 412.934,57.32 C412.934,90.16 438.086,114.99 471.889,114.99 C488.39,114.99 506.172,106.82 518.187,94.48 L501.526,76.86 C493.676,84.87 482.782,90 473.331,90 C455.548,90 442.091,75.74 442.091,57 C442.091,38.57 455.548,24.48 473.331,24.48 C483.263,24.48 494.157,30.08 501.526,39.05 L518.027,19.51 C506.813,7.98 489.511,0.61 472.85,0.61 Z" id="Fill-112"></path>
            <path d="M603.255,0.61 C568.651,0.61 542.698,24.8 542.698,57.48 C542.698,90.32 568.651,114.99 603.255,114.99 C638.019,114.99 663.972,90.16 663.972,57.48 C663.972,24.96 638.019,0.61 603.255,0.61 Z M603.575,24.48 C620.877,24.48 634.655,38.73 634.655,57.64 C634.655,76.54 620.877,91.12 603.575,91.12 C586.434,91.12 571.855,76.54 571.855,57.64 C571.855,38.73 586.273,24.48 603.575,24.48 Z" id="Fill-113"></path>
            <polygon id="Fill-114" points="803.35 113.71 803.35 1.57 776.75 1.57 776.75 70.77 725.009 1.57 699.857 1.57 699.857 113.71 726.611 113.71 726.611 44.66 778.2 113.71"></polygon>
            <polygon id="Fill-115" points="929.75 24 929.75 1.57 846.6 1.57 846.6 113.71 875.12 113.71 875.12 72.38 925.42 72.38 925.42 49.95 875.12 49.95 875.12 24"></polygon>
        </g>
    </g>
</svg>