<svg viewBox="0 0 296 33" xmlns="http://www.w3.org/2000/svg" fill-rule="evenodd" clip-rule="evenodd" stroke-linejoin="round" stroke-miterlimit="1.414">
    <path fill="#fff" d="M4.467 24.048h.902v8.001h-.902zM19.25 24.048h.902v8.001h-.902z"/>
    <path d="M39.186 9.144L52.492 32.05H25.88L39.186 9.144zm0 9.136l-8.01 13.769h16.02l-8.01-13.77z" fill="#3ab982"/>
    <path d="M36.097 32.048h-4.92l8.009-13.768 8.01 13.768h-4.92l-3.09-5.295-3.09 5.295z" fill="#fff"/>
    <path d="M55.35-.002a4.534 4.534 0 0 1 3.23 1.41 4.533 4.533 0 0 1 1.126 4.216 4.527 4.527 0 0 1-1.359 2.283 4.551 4.551 0 0 1-6.03.072 4.57 4.57 0 0 1-1.454-2.411A4.54 4.54 0 0 1 53.37.423a4.531 4.531 0 0 1 1.862-.425h.117zm-.09 2.188a2.346 2.346 0 0 0-1.675.73 2.367 2.367 0 0 0-.638 1.384c-.026.26-.01.522.048.776a2.368 2.368 0 0 0 1.38 1.64 2.35 2.35 0 0 0 1.78.02 2.362 2.362 0 0 0 1.21-3.315 2.384 2.384 0 0 0-1.053-1.003 2.334 2.334 0 0 0-1.051-.232z" fill="#3ab982" fill-rule="nonzero"/>
    <circle cx="363" cy="715" r="24" fill="#3ab982" transform="translate(-47.282 -87.345) scale(.1438)"/>
    <circle cx="363" cy="715" r="24" fill="#3ab982" transform="translate(8.712 -74.309) scale(.1438)"/>
    <circle cx="363" cy="715" r="24" fill="#3ab982" transform="translate(38.263 -21.175) scale(.0719)"/>
    <circle cx="363" cy="715" r="24" fill="#3ab982" transform="matrix(.20372 0 0 .20372 -69.031 -125.297)"/>
    <g transform="translate(-110.796 -240.42) scale(.3595)">
        <circle cx="363" cy="715" r="24" fill="#3ab982"/>
    </g>
    <g transform="translate(-1805.21 -1285.095)">
        <circle cx="1974.5" cy="1310.5" r="1.5" fill="#3ab982"/>
    </g>
    <g fill="#fff" fill-rule="nonzero">
        <path d="M87.196 31.509l5.418-13.792h-3.606l-3.526 10.147-3.527-10.147h-3.743l5.359 13.792h3.625zM126.088 17.717H122.6v8c0 1.87-1.123 3.014-2.778 3.014-1.675 0-2.877-1.143-2.877-3.015v-7.999h-3.507v8c0 3.644 2.483 5.95 6.364 5.95 3.862 0 6.285-2.306 6.285-5.95v-8zM159.109 20.475v-2.758h-10.797v13.792h11.013V28.75h-7.506v-2.778h6.58v-2.758h-6.58v-2.739h7.29zM187.756 17.599c-4.197 0-7.369 2.994-7.369 6.974 0 4.04 3.093 7.093 7.25 7.093 2.03 0 4.217-1.005 5.694-2.522l-2.049-2.167c-.965.985-2.305 1.616-3.467 1.616-2.187 0-3.842-1.754-3.842-4.06 0-2.265 1.655-3.999 3.842-3.999 1.221 0 2.561.69 3.467 1.793l2.03-2.403c-1.38-1.419-3.507-2.325-5.556-2.325zM220.934 17.599c-4.255 0-7.447 2.975-7.447 6.994 0 4.039 3.192 7.073 7.447 7.073 4.276 0 7.467-3.054 7.467-7.073 0-4-3.191-6.994-7.467-6.994zm.04 2.935c2.127 0 3.822 1.754 3.822 4.079 0 2.325-1.695 4.118-3.822 4.118-2.108 0-3.901-1.793-3.901-4.118s1.773-4.079 3.9-4.079zM262.683 31.509V17.717h-3.27v8.511l-6.364-8.511h-3.093v13.792h3.29v-8.492l6.344 8.492h3.093zM295.37 20.475v-2.758h-10.226v13.792h3.507v-5.084h6.186v-2.758h-6.186v-3.192h6.718z"/>
    </g>
</svg>
